<svg width="25" height="25" viewBox="0 0 25 25" fill="none" xmlns="http://www.w3.org/2000/svg">
<g clip-path="url(#clip0_64_93)">
<path d="M22.9168 11.5417V12.5C22.9156 14.7463 22.1882 16.932 20.8432 18.7311C19.4983 20.5302 17.6078 21.8464 15.4537 22.4833C13.2996 23.1201 10.9973 23.0437 8.89024 22.2652C6.78316 21.4868 4.98418 20.048 3.76158 18.1636C2.53898 16.2792 1.95828 14.0501 2.10608 11.8087C2.25387 9.56728 3.12225 7.43369 4.5817 5.72614C6.04116 4.01858 8.01348 2.82854 10.2045 2.33351C12.3956 1.83847 14.6879 2.06496 16.7398 2.97919M22.9168 4.16669L12.5002 14.5938L9.37517 11.4688" stroke="#FF9933" stroke-width="4" stroke-linecap="round" stroke-linejoin="round"/>
</g>
<defs>
<clipPath id="clip0_64_93">
<rect width="25" height="25" fill="white"/>
</clipPath>
</defs>
</svg>
