<svg width="21" height="21" viewBox="0 0 21 21" fill="none" xmlns="http://www.w3.org/2000/svg">
<path d="M10.1498 0C4.54427 0 0 4.56105 0 10.1873C0 14.9647 3.27717 18.9736 7.69801 20.0747V13.3005H5.60512V10.1873H7.69801V8.84582C7.69801 5.37848 9.26149 3.77133 12.6531 3.77133C13.2962 3.77133 14.4058 3.89806 14.8597 4.02439V6.84626C14.6202 6.821 14.204 6.80837 13.6872 6.80837C12.023 6.80837 11.38 7.4412 11.38 9.08624V10.1873H14.6953L14.1257 13.3005H11.38V20.3C16.4057 19.6908 20.3 15.3958 20.3 10.1873C20.2996 4.56105 15.7553 0 10.1498 0Z" fill="white"/>
</svg>
