<svg width="21" height="21" viewBox="0 0 21 21" fill="none" xmlns="http://www.w3.org/2000/svg">
<path d="M18.0444 0C18.6427 0 19.2164 0.237638 19.6394 0.660637C20.0624 1.08364 20.3 1.65734 20.3 2.25556V18.0444C20.3 18.6427 20.0624 19.2164 19.6394 19.6394C19.2164 20.0624 18.6427 20.3 18.0444 20.3H2.25556C1.65734 20.3 1.08364 20.0624 0.660637 19.6394C0.237638 19.2164 0 18.6427 0 18.0444V2.25556C0 1.65734 0.237638 1.08364 0.660637 0.660637C1.08364 0.237638 1.65734 0 2.25556 0H18.0444ZM17.4806 17.4806V11.5033C17.4806 10.5282 17.0932 9.5931 16.4037 8.90362C15.7142 8.21413 14.7791 7.82678 13.804 7.82678C12.8454 7.82678 11.7289 8.41322 11.1876 9.29289V8.04106H8.04106V17.4806H11.1876V11.9206C11.1876 11.0522 11.8868 10.3417 12.7552 10.3417C13.1739 10.3417 13.5755 10.5081 13.8716 10.8042C14.1677 11.1003 14.3341 11.5019 14.3341 11.9206V17.4806H17.4806ZM4.37578 6.27044C4.87827 6.27044 5.36019 6.07083 5.71551 5.71551C6.07083 5.36019 6.27044 4.87827 6.27044 4.37578C6.27044 3.32694 5.42461 2.46983 4.37578 2.46983C3.87029 2.46983 3.38551 2.67064 3.02807 3.02807C2.67064 3.38551 2.46983 3.87029 2.46983 4.37578C2.46983 5.42461 3.32694 6.27044 4.37578 6.27044ZM5.94339 17.4806V8.04106H2.81944V17.4806H5.94339Z" fill="white"/>
</svg>
