<svg width="50" height="50" viewBox="0 0 50 50" fill="none" xmlns="http://www.w3.org/2000/svg">
<path d="M24.9998 45.8334C24.5137 45.8334 24.0971 45.6945 23.7498 45.4167C23.4026 45.139 23.1422 44.7744 22.9686 44.323C22.3089 42.3786 21.4755 40.5556 20.4686 38.8542C19.4964 37.1529 18.1248 35.1563 16.354 32.8647C14.5832 30.573 13.1422 28.3855 12.0311 26.3022C10.9547 24.2188 10.4165 21.7015 10.4165 18.7501C10.4165 14.6876 11.8228 11.2501 14.6353 8.43758C17.4825 5.59036 20.9373 4.16675 24.9998 4.16675C29.0623 4.16675 32.4998 5.59036 35.3123 8.43758C38.1596 11.2501 39.5832 14.6876 39.5832 18.7501C39.5832 21.9098 38.9755 24.5487 37.7603 26.6667C36.5797 28.7501 35.2082 30.8161 33.6457 32.8647C31.7707 35.3647 30.3471 37.448 29.3748 39.1147C28.4373 40.7466 27.6561 42.4827 27.0311 44.323C26.8575 44.8091 26.5797 45.1911 26.1978 45.4688C25.8505 45.7119 25.4512 45.8334 24.9998 45.8334ZM24.9998 38.3855C25.5901 37.2049 26.2498 36.0417 26.979 34.8959C27.7429 33.7501 28.854 32.2223 30.3123 30.3126C31.8054 28.3681 33.0207 26.5799 33.9582 24.948C34.9304 23.2813 35.4165 21.2154 35.4165 18.7501C35.4165 15.8681 34.3922 13.4202 32.3436 11.4063C30.3297 9.35772 27.8818 8.33341 24.9998 8.33341C22.1179 8.33341 19.6526 9.35772 17.604 11.4063C15.5901 13.4202 14.5832 15.8681 14.5832 18.7501C14.5832 21.2154 15.0519 23.2813 15.9894 24.948C16.9616 26.5799 18.1943 28.3681 19.6873 30.3126C21.1457 32.2223 22.2394 33.7501 22.9686 34.8959C23.7325 36.0417 24.4096 37.2049 24.9998 38.3855ZM24.9998 23.9584C26.4582 23.9584 27.6908 23.4549 28.6978 22.448C29.7047 21.4411 30.2082 20.2084 30.2082 18.7501C30.2082 17.2917 29.7047 16.0591 28.6978 15.0522C27.6908 14.0452 26.4582 13.5417 24.9998 13.5417C23.5415 13.5417 22.3089 14.0452 21.3019 15.0522C20.295 16.0591 19.7915 17.2917 19.7915 18.7501C19.7915 20.2084 20.295 21.4411 21.3019 22.448C22.3089 23.4549 23.5415 23.9584 24.9998 23.9584Z" fill="#FF9933"/>
</svg>
