<svg width="50" height="50" viewBox="0 0 50 50" fill="none" xmlns="http://www.w3.org/2000/svg">
<path d="M45.8335 35.25V41.5C45.8358 42.0802 45.717 42.6546 45.4845 43.1862C45.2521 43.7178 44.9112 44.195 44.4836 44.5873C44.0561 44.9795 43.5513 45.2781 43.0017 45.464C42.4521 45.6499 41.8697 45.7189 41.2918 45.6667C34.881 44.9701 28.7231 42.7795 23.3126 39.2709C18.279 36.0723 14.0113 31.8046 10.8126 26.7709C7.29177 21.3359 5.10065 15.1479 4.41681 8.70837C4.36475 8.13226 4.43322 7.55162 4.61785 7.00342C4.80249 6.45522 5.09925 5.95148 5.48924 5.52425C5.87923 5.09702 6.35391 4.75568 6.88304 4.52196C7.41218 4.28824 7.98419 4.16725 8.56265 4.16671H14.8126C15.8237 4.15675 16.8039 4.51479 17.5705 5.17407C18.3371 5.83334 18.8378 6.74889 18.9793 7.75004C19.2431 9.75018 19.7323 11.7141 20.4376 13.6042C20.7179 14.3499 20.7786 15.1603 20.6125 15.9394C20.4463 16.7185 20.0603 17.4336 19.5001 18L16.8543 20.6459C19.8201 25.8616 24.1386 30.1801 29.3543 33.1459L32.0001 30.5C32.5666 29.9399 33.2817 29.5539 34.0608 29.3877C34.8399 29.2216 35.6503 29.2822 36.396 29.5625C38.2861 30.2679 40.25 30.7571 42.2501 31.0209C43.2622 31.1636 44.1864 31.6734 44.8471 32.4532C45.5078 33.2329 45.8588 34.2283 45.8335 35.25Z" stroke="#FF9933" stroke-width="4" stroke-linecap="round" stroke-linejoin="round"/>
</svg>
